HIERARCHY
ROOT Hips
{
	OFFSET 0.00 0.00 0.00
	CHANNELS 6 Xposition Yposition Zposition Xrotation Yrotation Zrotation
	JOINT Spine
	{
		OFFSET 0.00000 7.50895 0.00000
		CHANNELS 3 Xrotation Yrotation Zrotation
		JOINT Head
		{
			OFFSET 0.00000 13.86115 0.00000
			CHANNELS 3 Xrotation Yrotation Zrotation
			End Site
			{
				OFFSET 0.00000 4.52755 0.00000
			}
		}
		JOINT LeftShoulder
		{
			OFFSET 0.00000 8.20478 0.00000
			CHANNELS 3 Xrotation Yrotation Zrotation
			JOINT LeftArm
			{
				OFFSET 6.63596 0.00000 0.00000
				CHANNELS 3 Xrotation Yrotation Zrotation
				JOINT LeftForeArm
				{
					OFFSET 10.27422 0.00000 0.00000
					CHANNELS 3 Yrotation Zrotation Xrotation
					JOINT LeftHand
					{
						OFFSET 8.52215 0.00000 0.00000
						CHANNELS 3 Xrotation Yrotation Zrotation
						JOINT LeftHandThumb1
						{
							OFFSET 0.00000 0.00000 0.00000
							CHANNELS 3 Xrotation Zrotation Yrotation
							End Site
							{
								OFFSET 0.00000 0.00000 3.93700
							}
						}
						End Site
						{
							OFFSET 3.93700 0.00000 0.00000
						}
					}
				}
			}
		}
		JOINT RightShoulder
		{
			OFFSET 0.00000 8.20478 0.00000
			CHANNELS 3 Xrotation Yrotation Zrotation
			JOINT RightArm
			{
				OFFSET -6.63596 0.00000 0.00000
				CHANNELS 3 Xrotation Yrotation Zrotation
				JOINT RightForeArm
				{
					OFFSET -10.27422 0.00000 0.00000
					CHANNELS 3 Yrotation Zrotation Xrotation
					JOINT RightHand
					{
						OFFSET -8.52215 0.00000 0.00000
						CHANNELS 3 Xrotation Yrotation Zrotation
						JOINT RightHandThumb1
						{
							OFFSET 0.00000 0.00000 0.00000
							CHANNELS 3 Xrotation Zrotation Yrotation
							End Site
							{
								OFFSET 0.00000 0.00000 3.93700
							}
						}
						End Site
						{
							OFFSET -3.93700 0.00000 0.00000
						}
					}
				}
			}
		}
	}
	JOINT LeftUpLeg
	{
		OFFSET 3.00056 0.00000 0.00000
		CHANNELS 3 Xrotation Yrotation Zrotation
		JOINT LeftLeg
		{
			OFFSET 0.00000 -16.49085 0.00000
			CHANNELS 3 Xrotation Yrotation Zrotation
			JOINT LeftFoot
			{
				OFFSET 0.00000 -14.55658 0.00000
				CHANNELS 3 Xrotation Yrotation Zrotation
				JOINT LeftToeBase
				{
					OFFSET 0.00000 -1.25038 4.66650
					CHANNELS 3 Xrotation Yrotation Zrotation
					End Site
					{
						OFFSET 0.00000 0.00000 2.95275
					}
				}
			}
		}
	}
	JOINT RightUpLeg
	{
		OFFSET -3.00056 0.00000 0.00000
		CHANNELS 3 Xrotation Yrotation Zrotation
		JOINT RightLeg
		{
			OFFSET 0.00000 -16.49085 0.00000
			CHANNELS 3 Xrotation Yrotation Zrotation
			JOINT RightFoot
			{
				OFFSET 0.00000 -14.55658 0.00000
				CHANNELS 3 Xrotation Yrotation Zrotation
				JOINT RightToeBase
				{
					OFFSET 0.00000 -1.25038 4.66650
					CHANNELS 3 Xrotation Yrotation Zrotation
					End Site
					{
						OFFSET 0.00000 0.00000 2.95275
					}
				}
			}
		}
	}
}
MOTION
Frames: 17
Frame Time: 0.008333
 -4.0011 32.8801 -1.3667 13.3202 -1.7709 -0.6207 -14.2282 5.8760 1.0125 -11.7130 -9.1420 8.0467 12.1864 20.0620 27.5400 -28.8595 -2.1131 -30.0885 -12.7665 -0.0000 9.5085 2.2934 24.3423 -5.5494 33.1476 -0.0000 26.2537 -20.8271 -8.9181 -37.3074 -2.8395 -4.0591 30.6115 13.9299 -0.0000 28.0667 1.0267 -9.0288 6.5147 32.8623 0.0000 -24.3270 -8.4545 5.3150 1.5494 0.0561 -0.0000 -0.0000 -9.9503 11.3759 -8.9722 10.9327 0.0000 -0.0000 -10.2974 -2.5251 0.1122 3.9288 0.0000 -0.0000 -10.6281 -5.8321 0.6805 4.4778 -0.0000 0.0000
 -4.0034 32.8799 -1.3657 13.3254 -1.7764 -0.6302 -14.2373 5.8776 1.0159 -11.6734 -9.1477 8.0497 12.1927 20.0745 27.5439 -28.8804 -2.1239 -30.0895 -12.7626 -0.0000 9.5158 2.2934 24.3826 -5.5411 33.1476 -0.0000 26.2537 -20.8142 -8.9078 -37.2971 -2.8240 -4.0673 30.6105 13.9329 -0.0000 28.0551 1.0264 -9.0311 6.5113 32.8623 0.0000 -24.3270 -8.4564 5.3069 1.5577 0.0624 -0.0000 0.0000 -9.9664 11.4199 -8.9931 10.9384 -0.0000 -0.0000 -10.3236 -2.6071 0.1241 3.9747 0.0000 -0.0000 -10.6337 -5.7584 0.6334 4.4190 -0.0000 0.0000
 -4.0057 32.8800 -1.3648 13.3301 -1.7706 -0.6329 -14.2407 5.8783 1.0119 -11.6285 -9.1444 8.0405 12.1843 20.0573 27.5464 -28.8559 -2.1225 -30.0737 -12.7798 -0.0000 9.5143 2.2895 24.3507 -5.5383 33.1476 -0.0000 26.2537 -20.8065 -8.9245 -37.2739 -2.8358 -4.0470 30.5876 13.9120 -0.0000 28.0323 1.0095 -8.9458 6.4650 32.8623 0.0000 -24.3270 -8.4566 5.2951 1.5631 0.0565 -0.0000 -0.0000 -9.9567 11.4344 -9.0010 10.8897 -0.0000 -0.0000 -10.3243 -2.6105 0.1285 3.9744 0.0000 -0.0000 -10.6471 -5.7510 0.6938 4.4902 -0.0000 0.0000
 -4.0071 32.8791 -1.3630 13.3250 -1.7658 -0.6250 -14.2301 5.8858 0.9886 -11.5849 -9.1532 8.0669 12.1926 20.0653 27.5495 -28.8512 -2.1634 -30.0601 -12.7652 -0.0000 9.5041 2.2918 24.3591 -5.5422 33.1476 -0.0000 26.2537 -20.8054 -8.9403 -37.2617 -2.8474 -4.0460 30.5873 13.9160 -0.0000 28.0117 1.0121 -8.9718 6.4632 32.8623 0.0000 -24.3270 -8.4455 5.3099 1.5636 0.0430 -0.0000 -0.0000 -9.9472 11.3756 -8.9841 10.8958 0.0000 -0.0000 -10.2753 -2.5210 0.1221 3.8908 0.0000 -0.0000 -10.6241 -5.8296 0.7308 4.4901 0.0000 -0.0000
 -4.0100 32.8792 -1.3620 13.3287 -1.7632 -0.6380 -14.2335 5.8887 0.9971 -11.5439 -9.1551 8.0605 12.1986 20.0671 27.5472 -28.8769 -2.1705 -30.0607 -12.7715 -0.0000 9.5684 2.2876 24.3934 -5.5247 33.1476 -0.0000 26.2537 -20.8165 -8.9446 -37.2604 -2.8571 -4.0521 30.5860 13.9117 -0.0000 28.0435 1.0120 -8.9339 6.4896 32.8623 0.0000 -24.3270 -8.4505 5.3099 1.5765 0.0506 0.0000 0.0000 -9.9546 11.4081 -9.0016 10.8469 -0.0000 -0.0000 -10.2692 -2.5208 0.1334 3.8760 0.0000 0.0000 -10.6030 -5.8158 0.7796 4.4482 0.0000 -0.0000
 -4.0125 32.8791 -1.3603 13.3292 -1.7585 -0.6495 -14.2350 5.8746 1.0054 -11.4992 -9.1450 8.0560 12.1958 20.0650 27.5365 -28.8761 -2.1762 -30.0416 -12.7765 -0.0000 9.6117 2.2868 24.3865 -5.5243 33.1476 -0.0000 26.2537 -20.8174 -8.9393 -37.2502 -2.8757 -4.0576 30.5801 13.9204 -0.0000 28.0494 1.0204 -8.9484 6.5323 32.8623 0.0000 -24.3270 -8.4487 5.3151 1.5982 0.0408 -0.0000 0.0000 -9.9606 11.3579 -8.9914 10.9237 0.0000 -0.0000 -10.2693 -2.5300 0.1491 3.8868 0.0000 -0.0000 -10.6134 -5.8105 0.7716 4.4469 0.0000 0.0000
 -4.0144 32.8789 -1.3589 13.3321 -1.7493 -0.6507 -14.2397 5.8718 0.9974 -11.4465 -9.1415 8.0587 12.1994 20.0651 27.5364 -28.8130 -2.2365 -30.0264 -12.7773 -0.0000 9.5790 2.2585 24.4395 -5.4453 33.1476 -0.0000 26.2537 -20.8086 -8.9505 -37.2604 -2.9094 -4.0701 30.6148 13.9182 -0.0000 28.0222 1.0124 -8.9753 6.4627 32.8623 0.0000 -24.3270 -8.4477 5.3180 1.6020 0.0344 -0.0000 0.0000 -9.9489 11.3485 -9.0253 10.8852 -0.0000 0.0000 -10.2680 -2.5377 0.1520 3.8832 0.0000 -0.0000 -10.5930 -5.8163 0.7062 4.3675 -0.0000 0.0000
 -4.0161 32.8787 -1.3573 13.3331 -1.7433 -0.6532 -14.2414 5.8708 0.9925 -11.3978 -9.1215 8.0718 12.2091 20.0663 27.5342 -28.8281 -2.2592 -30.0149 -12.7615 -0.0000 9.6204 2.2724 24.4279 -5.4810 33.1476 -0.0000 26.2537 -20.8182 -8.9519 -37.2625 -2.9184 -4.0771 30.6272 13.9252 -0.0000 28.0370 1.0104 -8.9685 6.4546 32.8623 0.0000 -24.3270 -8.4450 5.3188 1.6056 0.0304 0.0000 0.0000 -9.9589 11.3377 -9.0186 10.9038 -0.0000 -0.0000 -10.2621 -2.5322 0.1577 3.8775 0.0000 -0.0000 -10.6044 -5.8343 0.7158 4.4084 0.0000 -0.0000
 -4.0175 32.8784 -1.3558 13.3367 -1.7365 -0.6592 -14.2470 5.8609 0.9991 -11.3512 -9.1147 8.0550 12.2083 20.0596 27.5206 -28.8231 -2.2824 -29.9944 -12.7399 -0.0000 9.6684 2.2701 24.4023 -5.4809 33.1476 -0.0000 26.2537 -20.8181 -8.9526 -37.2608 -2.9207 -4.0659 30.6277 13.9270 -0.0000 28.0408 1.0093 -8.9556 6.4569 32.8623 0.0000 -24.3270 -8.4485 5.3102 1.6137 0.0332 -0.0000 -0.0000 -9.9564 11.3349 -9.0035 10.9043 -0.0000 0.0000 -10.2564 -2.5295 0.1615 3.8670 -0.0000 -0.0000 -10.6002 -5.8289 0.7602 4.4008 -0.0000 0.0000
 -4.0190 32.8784 -1.3537 13.3298 -1.7287 -0.6652 -14.2364 5.8521 1.0033 -11.2904 -9.0706 8.0863 12.2085 20.0508 27.5079 -28.8249 -2.2852 -29.9726 -12.7541 -0.0000 9.7162 2.2971 24.4200 -5.5420 33.1476 -0.0000 26.2537 -20.8252 -8.9492 -37.2652 -2.9123 -4.0588 30.6402 13.9226 -0.0000 28.0407 1.0061 -8.9513 6.4397 32.8623 0.0000 -24.3270 -8.4378 5.3146 1.6204 0.0297 0.0000 -0.0000 -9.9651 11.3278 -9.0248 10.9442 -0.0000 0.0000 -10.2486 -2.5231 0.1698 3.8773 0.0000 -0.0000 -10.6162 -5.8513 0.7695 4.4399 -0.0000 -0.0000
 -4.0200 32.8780 -1.3519 13.3274 -1.7218 -0.6660 -14.2381 5.8492 0.9965 -11.2425 -9.0551 8.0858 12.2410 20.0787 27.4992 -28.8439 -2.3391 -29.9646 -12.7480 -0.0000 9.7001 2.3075 24.4159 -5.5677 33.1476 -0.0000 26.2537 -20.8244 -8.9344 -37.2578 -2.8979 -4.0729 30.6396 13.9300 -0.0000 28.0393 1.0041 -8.9553 6.4239 32.8623 0.0000 -24.3270 -8.4316 5.3058 1.6218 0.0270 0.0000 0.0000 -9.9656 11.3252 -9.0158 10.9488 -0.0000 0.0000 -10.2421 -2.5312 0.1710 3.8768 -0.0000 -0.0000 -10.6173 -5.8530 0.7200 4.4369 0.0000 -0.0000
 -4.0211 32.8779 -1.3501 13.3301 -1.7129 -0.6690 -14.2421 5.8449 0.9942 -11.1910 -9.0325 8.0952 12.2369 20.0769 27.5068 -28.8426 -2.3461 -29.9635 -12.7678 -0.0000 9.7097 2.3138 24.3903 -5.5885 33.1476 -0.0000 26.2537 -20.8256 -8.9410 -37.2511 -2.9051 -4.0719 30.6384 13.9362 -0.0000 28.0185 1.0050 -8.9705 6.4188 32.8623 0.0000 -24.3270 -8.4300 5.2843 1.6235 0.0227 -0.0000 -0.0000 -9.9753 11.3460 -8.9583 10.9410 0.0000 0.0000 -10.2409 -2.5424 0.1756 3.8778 0.0000 0.0000 -10.6217 -5.8433 0.6922 4.4272 -0.0000 0.0000
 -4.0236 32.8780 -1.3481 13.3287 -1.7130 -0.6760 -14.2432 5.8451 0.9936 -11.1380 -9.0005 8.1178 12.2376 20.0830 27.5169 -28.8455 -2.3592 -29.9639 -12.7834 -0.0000 9.7187 2.3216 24.4127 -5.6023 33.1476 -0.0000 26.2537 -20.8320 -8.9357 -37.2464 -2.8860 -4.0653 30.6448 13.9353 -0.0000 27.9961 0.9985 -8.9612 6.3845 32.8623 0.0000 -24.3270 -8.4258 5.2866 1.6360 0.0216 0.0000 -0.0000 -9.9735 11.3469 -9.0093 10.9221 -0.0000 0.0000 -10.2379 -2.5371 0.1840 3.8860 -0.0000 -0.0000 -10.6298 -5.8478 0.7752 4.4619 -0.0000 0.0000
 -4.0242 32.8776 -1.3465 13.3290 -1.7042 -0.6787 -14.2419 5.8396 0.9952 -11.0673 -8.9700 8.1648 12.2434 20.0880 27.5081 -28.8863 -2.3611 -29.9533 -12.7873 -0.0000 9.7500 2.3406 24.3880 -5.6531 33.1476 -0.0000 26.2537 -20.8235 -8.9443 -37.2488 -2.9135 -4.0759 30.6511 13.9479 -0.0000 28.0180 1.0018 -8.9763 6.3944 32.8623 0.0000 -24.3270 -8.4249 5.2869 1.6377 0.0231 0.0000 0.0000 -9.9739 11.3350 -8.9903 10.9009 0.0000 -0.0000 -10.2332 -2.5384 0.1858 3.8827 -0.0000 0.0000 -10.6390 -5.8550 0.7987 4.4635 -0.0000 0.0000
 -4.0257 32.8775 -1.3445 13.3290 -1.6982 -0.6821 -14.2430 5.8356 0.9955 -11.0206 -8.9518 8.1722 12.2410 20.0949 27.5088 -28.9076 -2.3713 -29.9497 -12.7998 -0.0000 9.7760 2.3462 24.3890 -5.6664 33.1476 -0.0000 26.2537 -20.8251 -8.9521 -37.2523 -2.9296 -4.0704 30.6596 13.9433 -0.0000 28.0332 1.0012 -8.9964 6.3770 32.8623 0.0000 -24.3270 -8.4208 5.2806 1.6419 0.0208 -0.0000 0.0000 -9.9767 11.3393 -9.0063 10.9404 -0.0000 -0.0000 -10.2231 -2.5488 0.1893 3.8683 0.0000 -0.0000 -10.6180 -5.8443 0.7616 4.3883 -0.0000 0.0000
 -4.0279 32.8768 -1.3424 13.3250 -1.6965 -0.6966 -14.2380 5.8483 1.0090 -10.9883 -8.9332 8.1855 12.2244 20.0828 27.5281 -28.9044 -2.3752 -29.9579 -12.8181 -0.0000 9.8196 2.3579 24.3977 -5.6928 33.1476 -0.0000 26.2537 -20.8427 -8.9491 -37.2585 -2.8886 -4.0640 30.6562 13.9450 -0.0000 28.0094 1.0026 -8.9854 6.3932 32.8623 0.0000 -24.3270 -8.4074 5.2526 1.6586 0.0060 0.0000 0.0000 -9.9830 11.3678 -8.9984 10.9222 -0.0000 0.0000 -10.2184 -2.5422 0.2107 3.8780 0.0000 0.0000 -10.6239 -5.8673 0.7332 4.3877 0.0000 -0.0000
 -4.0285 32.8766 -1.3404 13.3259 -1.6939 -0.6975 -14.2402 5.8447 1.0108 -10.9475 -8.8931 8.1902 12.2135 20.0803 27.5270 -28.9084 -2.3844 -29.9442 -12.8222 -0.0000 9.8167 2.3719 24.3903 -5.7279 33.1476 -0.0000 26.2537 -20.8439 -8.9498 -37.2591 -2.9007 -4.0645 30.6582 13.9495 -0.0000 28.0275 1.0049 -8.9855 6.4077 32.8623 0.0000 -24.3270 -8.4042 5.2490 1.6530 0.0094 0.0000 -0.0000 -9.9862 11.4172 -9.0208 10.9147 -0.0000 -0.0000 -10.2192 -2.5470 0.2114 3.8862 0.0000 0.0000 -10.6333 -5.8562 0.7280 4.3980 -0.0000 -0.0000
